<svg xmlns="http://www.w3.org/2000/svg" width="223" height="30" viewBox="0 0 223 30"><rect width="223" height="30" rx="8" style="fill:#5865f2"/><path d="M55.05,19.1a.8.8,0,0,1-.62-.21.78.78,0,0,1-.22-.58.74.74,0,0,1,.16-.47.61.61,0,0,1,.47-.21l.42,0a1.2,1.2,0,0,0,1.24-1.37V9.93a.9.9,0,1,1,1.8,0v6.28a2.88,2.88,0,0,1-.7,2.05,3.08,3.08,0,0,1-2.08.81Z" style="fill:#fff"/><path d="M63.39,19.14a3.77,3.77,0,0,1-1.85-.43,3,3,0,0,1-1.21-1.24,4,4,0,0,1-.44-1.9,3.88,3.88,0,0,1,.44-1.89,3,3,0,0,1,1.21-1.23,4.11,4.11,0,0,1,3.7,0,3.07,3.07,0,0,1,1.22,1.23,3.88,3.88,0,0,1,.43,1.89,4,4,0,0,1-.43,1.9,3.1,3.1,0,0,1-1.22,1.24A3.75,3.75,0,0,1,63.39,19.14Zm0-1.33a1.57,1.57,0,0,0,1.26-.57,2.5,2.5,0,0,0,.48-1.67,2.48,2.48,0,0,0-.48-1.67,1.7,1.7,0,0,0-2.52,0,2.48,2.48,0,0,0-.47,1.67,2.5,2.5,0,0,0,.47,1.67A1.57,1.57,0,0,0,63.39,17.81Z" style="fill:#fff"/><path d="M69.2,10.75a1.1,1.1,0,0,1-.76-.24.87.87,0,0,1-.27-.68.87.87,0,0,1,.27-.69,1.15,1.15,0,0,1,.76-.23c.69,0,1,.3,1,.92S69.89,10.75,69.2,10.75Zm0,8.35a.83.83,0,0,1-.64-.25,1,1,0,0,1-.23-.7V13c0-.64.29-.95.87-.95s.88.31.88.95v5.14a1,1,0,0,1-.22.7A.87.87,0,0,1,69.2,19.1Z" style="fill:#fff"/><path d="M72.77,19.11a.78.78,0,0,1-.87-.89v-5.3a.86.86,0,1,1,1.71,0v.3a2.35,2.35,0,0,1,1-.9A2.9,2.9,0,0,1,75.89,12c1.62,0,2.42.94,2.42,2.82v3.39c0,.59-.28.89-.86.89a.79.79,0,0,1-.89-.89V14.91a1.81,1.81,0,0,0-.3-1.16,1.14,1.14,0,0,0-.93-.36,1.6,1.6,0,0,0-1.22.48,1.76,1.76,0,0,0-.46,1.28v3.07A.78.78,0,0,1,72.77,19.11Z" style="fill:#fff"/><path d="M87,19.14a2.39,2.39,0,0,1-2.71-2.69v-3h-.73c-.47,0-.7-.22-.7-.66s.23-.66.7-.66h.73V10.88a.88.88,0,1,1,1.75,0v1.27h1.48c.47,0,.7.22.7.66s-.23.66-.7.66H86.06v2.88a1.47,1.47,0,0,0,.29,1,1.18,1.18,0,0,0,1,.34,2.5,2.5,0,0,0,.42,0L88,17.6a.31.31,0,0,1,.28.11.68.68,0,0,1,.12.48,1.22,1.22,0,0,1-.09.49A.56.56,0,0,1,88,19a4.84,4.84,0,0,1-.48.1A3.61,3.61,0,0,1,87,19.14Z" style="fill:#fff"/><path d="M90.31,19.11a.78.78,0,0,1-.87-.89V9.9a.88.88,0,1,1,1.75,0v3.25a2.26,2.26,0,0,1,.94-.85,3,3,0,0,1,1.3-.29q2.43,0,2.43,2.82v3.39a.88.88,0,1,1-1.75,0V14.91a1.81,1.81,0,0,0-.3-1.16,1.18,1.18,0,0,0-.94-.36,1.6,1.6,0,0,0-1.22.48,1.81,1.81,0,0,0-.46,1.28v3.07A.78.78,0,0,1,90.31,19.11Z" style="fill:#fff"/><path d="M101,19.14a4.28,4.28,0,0,1-2-.43,3.05,3.05,0,0,1-1.3-1.24,3.78,3.78,0,0,1-.45-1.89,3.74,3.74,0,0,1,.44-1.86,3.19,3.19,0,0,1,1.22-1.25,3.43,3.43,0,0,1,1.77-.46,3,3,0,0,1,2.3.93,3.59,3.59,0,0,1,.85,2.52c0,.34-.23.52-.68.52H98.94a1.86,1.86,0,0,0,2.1,1.83,4.17,4.17,0,0,0,.81-.09,2.93,2.93,0,0,0,.87-.32.78.78,0,0,1,.61-.13.55.55,0,0,1,.36.3.71.71,0,0,1,0,.5.85.85,0,0,1-.4.47,3.82,3.82,0,0,1-1.13.45A5.15,5.15,0,0,1,101,19.14Zm-.25-5.94a1.68,1.68,0,0,0-1.25.48A2.09,2.09,0,0,0,98.94,15h3.44a2.08,2.08,0,0,0-.47-1.31A1.48,1.48,0,0,0,100.76,13.2Z" style="fill:#fff"/><path d="M110.14,19a.85.85,0,0,1-1-.95v-8a.85.85,0,0,1,1-.95h2.71a5.37,5.37,0,0,1,3.83,1.27A4.79,4.79,0,0,1,118,14.06a4.8,4.8,0,0,1-1.35,3.65A5.33,5.33,0,0,1,112.85,19Zm.84-1.48h1.76c2.28,0,3.42-1.16,3.42-3.46s-1.14-3.45-3.42-3.45H111Z" style="fill:#fff"/><path d="M120.55,10.75a1.12,1.12,0,0,1-.76-.24.87.87,0,0,1-.27-.68.87.87,0,0,1,.27-.69,1.17,1.17,0,0,1,.76-.23c.69,0,1,.3,1,.92S121.24,10.75,120.55,10.75Zm0,8.35a.83.83,0,0,1-.64-.25,1,1,0,0,1-.23-.7V13c0-.64.29-.95.87-.95s.88.31.88.95v5.14a1,1,0,0,1-.22.7A.87.87,0,0,1,120.55,19.1Z" style="fill:#fff"/><path d="M125.76,19.14a6.37,6.37,0,0,1-1.27-.13,3.63,3.63,0,0,1-1.21-.43.7.7,0,0,1-.36-.41.66.66,0,0,1,0-.46.57.57,0,0,1,.31-.32.62.62,0,0,1,.51,0,4.64,4.64,0,0,0,2,.48,1.82,1.82,0,0,0,1-.23.74.74,0,0,0,.32-.61c0-.39-.29-.65-.86-.76l-1.4-.26c-1.19-.23-1.78-.84-1.78-1.85a1.83,1.83,0,0,1,.37-1.16,2.38,2.38,0,0,1,1-.76A4,4,0,0,1,126,12a4.46,4.46,0,0,1,2.2.55.55.55,0,0,1,.31.39.67.67,0,0,1,0,.46.61.61,0,0,1-.85.26,4.21,4.21,0,0,0-.83-.33,3.51,3.51,0,0,0-.77-.09,1.82,1.82,0,0,0-1,.23.74.74,0,0,0-.33.63c0,.41.27.67.8.76l1.4.27a2.68,2.68,0,0,1,1.38.61,1.6,1.6,0,0,1,.47,1.21,1.88,1.88,0,0,1-.8,1.6A3.52,3.52,0,0,1,125.76,19.14Z" style="fill:#fff"/><path d="M133.25,19.14a3.9,3.9,0,0,1-1.88-.44,3,3,0,0,1-1.23-1.25,4,4,0,0,1-.43-1.91,3.84,3.84,0,0,1,.43-1.88,3,3,0,0,1,1.23-1.22,4,4,0,0,1,1.88-.43,4.66,4.66,0,0,1,1,.13,3.24,3.24,0,0,1,1,.42.64.64,0,0,1,.32.43.74.74,0,0,1-.06.49.72.72,0,0,1-.36.33.59.59,0,0,1-.52-.07,2.46,2.46,0,0,0-1.25-.37,1.76,1.76,0,0,0-1.4.57,2.4,2.4,0,0,0-.5,1.62,2.48,2.48,0,0,0,.5,1.63,1.74,1.74,0,0,0,1.4.59,2.53,2.53,0,0,0,1.25-.35.59.59,0,0,1,.52-.07.64.64,0,0,1,.32.33.74.74,0,0,1,0,.49.67.67,0,0,1-.32.43,3.49,3.49,0,0,1-1,.4A3.89,3.89,0,0,1,133.25,19.14Z" style="fill:#fff"/><path d="M139.68,19.14a3.75,3.75,0,0,1-1.85-.43,3,3,0,0,1-1.22-1.24,4,4,0,0,1-.43-1.9,3.88,3.88,0,0,1,.43-1.89,3,3,0,0,1,1.22-1.23,4.09,4.09,0,0,1,3.69,0,3,3,0,0,1,1.22,1.23,3.88,3.88,0,0,1,.44,1.89,4,4,0,0,1-.44,1.9,3,3,0,0,1-1.22,1.24A3.73,3.73,0,0,1,139.68,19.14Zm0-1.33a1.57,1.57,0,0,0,1.26-.57,2.56,2.56,0,0,0,.47-1.67,2.54,2.54,0,0,0-.47-1.67,1.59,1.59,0,0,0-1.26-.56,1.56,1.56,0,0,0-1.26.56,2.48,2.48,0,0,0-.48,1.67,2.5,2.5,0,0,0,.48,1.67A1.54,1.54,0,0,0,139.68,17.81Z" style="fill:#fff"/><path d="M145.51,19.11a.79.79,0,0,1-.89-.89v-5.3a.86.86,0,1,1,1.71,0v.44A2.32,2.32,0,0,1,148.48,12c.4,0,.63.19.67.69s-.19.77-.72.83l-.31,0c-1.15.12-1.72.7-1.72,1.77v2.9A.79.79,0,0,1,145.51,19.11Z" style="fill:#fff"/><path d="M152.63,19.14a2.86,2.86,0,0,1-1.58-.43A3,3,0,0,1,150,17.47a4.47,4.47,0,0,1-.37-1.9,4.41,4.41,0,0,1,.37-1.9,3,3,0,0,1,1.06-1.22,2.86,2.86,0,0,1,1.58-.44,2.63,2.63,0,0,1,1.31.33,2.07,2.07,0,0,1,.88.85V9.9a.88.88,0,1,1,1.75,0v8.32a.87.87,0,1,1-1.73,0v-.3a2.22,2.22,0,0,1-.88.89A2.7,2.7,0,0,1,152.63,19.14Zm.49-1.33a1.57,1.57,0,0,0,1.26-.57,2.56,2.56,0,0,0,.47-1.67,2.54,2.54,0,0,0-.47-1.67,1.59,1.59,0,0,0-1.26-.56,1.56,1.56,0,0,0-1.26.56,2.48,2.48,0,0,0-.48,1.67,2.5,2.5,0,0,0,.48,1.67A1.54,1.54,0,0,0,153.12,17.81Z" style="fill:#fff"/><path d="M165.76,19.14a7.9,7.9,0,0,1-1.83-.21,5,5,0,0,1-1.55-.63.86.86,0,0,1-.39-.52.89.89,0,0,1,0-.58.71.71,0,0,1,.38-.38.64.64,0,0,1,.59.11,4.81,4.81,0,0,0,1.31.53,6,6,0,0,0,1.44.17,2.81,2.81,0,0,0,1.61-.37,1.16,1.16,0,0,0,.5-1,.91.91,0,0,0-.36-.77,3,3,0,0,0-1.22-.46l-1.54-.33c-1.75-.37-2.63-1.27-2.63-2.7a2.69,2.69,0,0,1,.49-1.61A3.1,3.1,0,0,1,164,9.37,5,5,0,0,1,166,9a5.87,5.87,0,0,1,1.59.21,4.57,4.57,0,0,1,1.36.62.76.76,0,0,1,.34.48.86.86,0,0,1-.07.53.67.67,0,0,1-.4.34.79.79,0,0,1-.64-.12,3.61,3.61,0,0,0-1.05-.42A4.66,4.66,0,0,0,166,10.5a2.51,2.51,0,0,0-1.51.41A1.26,1.26,0,0,0,163.9,12a1,1,0,0,0,.33.81,2.66,2.66,0,0,0,1.15.47l1.53.32a4.25,4.25,0,0,1,2.06.92,2.19,2.19,0,0,1,.68,1.68,2.62,2.62,0,0,1-.48,1.56,3.07,3.07,0,0,1-1.35,1A5.19,5.19,0,0,1,165.76,19.14Z" style="fill:#fff"/><path d="M174.4,19.14a4.32,4.32,0,0,1-2-.43,3,3,0,0,1-1.29-1.24,3.68,3.68,0,0,1-.46-1.89,3.84,3.84,0,0,1,.44-1.86,3.26,3.26,0,0,1,1.22-1.25,3.48,3.48,0,0,1,1.77-.46,3,3,0,0,1,2.31.93,3.59,3.59,0,0,1,.84,2.52c0,.34-.22.52-.67.52h-4.23a1.86,1.86,0,0,0,2.1,1.83,4.19,4.19,0,0,0,.82-.09,2.87,2.87,0,0,0,.86-.32.81.81,0,0,1,.62-.13.55.55,0,0,1,.36.3.66.66,0,0,1,0,.5.83.83,0,0,1-.39.47,3.93,3.93,0,0,1-1.13.45A5.22,5.22,0,0,1,174.4,19.14Zm-.26-5.94a1.66,1.66,0,0,0-1.24.48,2.15,2.15,0,0,0-.58,1.29h3.45a2.14,2.14,0,0,0-.47-1.31A1.51,1.51,0,0,0,174.14,13.2Z" style="fill:#fff"/><path d="M179.5,19.11a.79.79,0,0,1-.89-.89v-5.3a.86.86,0,1,1,1.71,0v.44A2.32,2.32,0,0,1,182.47,12c.4,0,.63.19.68.69s-.2.77-.73.83l-.31,0c-1.15.12-1.72.7-1.72,1.77v2.9A.79.79,0,0,1,179.5,19.11Z" style="fill:#fff"/><path d="M187.29,19.11a1.09,1.09,0,0,1-1-.74L184,13.2a.89.89,0,0,1,0-.81.79.79,0,0,1,.76-.35.82.82,0,0,1,.52.15,1.21,1.21,0,0,1,.35.55l1.68,4.2,1.74-4.21a1.23,1.23,0,0,1,.35-.54A.93.93,0,0,1,190,12a.65.65,0,0,1,.63.35.9.9,0,0,1,0,.8l-2.26,5.18A1.07,1.07,0,0,1,187.29,19.11Z" style="fill:#fff"/><path d="M195.13,19.14a4.28,4.28,0,0,1-2-.43,3.05,3.05,0,0,1-1.3-1.24,3.78,3.78,0,0,1-.45-1.89,3.74,3.74,0,0,1,.44-1.86A3.19,3.19,0,0,1,193,12.47a3.43,3.43,0,0,1,1.77-.46,3,3,0,0,1,2.3.93,3.59,3.59,0,0,1,.85,2.52c0,.34-.23.52-.67.52h-4.23a1.86,1.86,0,0,0,2.1,1.83,4.35,4.35,0,0,0,.82-.09,3,3,0,0,0,.86-.32.78.78,0,0,1,.61-.13.55.55,0,0,1,.36.3.71.71,0,0,1,0,.5.85.85,0,0,1-.4.47,3.82,3.82,0,0,1-1.13.45A5.15,5.15,0,0,1,195.13,19.14Zm-.25-5.94a1.68,1.68,0,0,0-1.25.48,2.09,2.09,0,0,0-.57,1.29h3.44a2.08,2.08,0,0,0-.47-1.31A1.48,1.48,0,0,0,194.88,13.2Z" style="fill:#fff"/><path d="M200.24,19.11a.79.79,0,0,1-.9-.89v-5.3a.86.86,0,1,1,1.71,0v.44A2.35,2.35,0,0,1,203.21,12c.4,0,.62.19.67.69s-.2.77-.73.83l-.31,0c-1.15.12-1.72.7-1.72,1.77v2.9A.78.78,0,0,1,200.24,19.11Z" style="fill:#fff"/><path d="M41.07,8.39a17.77,17.77,0,0,0-4.23-1.31.08.08,0,0,0-.07,0,10.72,10.72,0,0,0-.52,1.08,15.76,15.76,0,0,0-4.75,0A10.8,10.8,0,0,0,31,7.12a.07.07,0,0,0-.07,0,17.56,17.56,0,0,0-4.22,1.31l0,0a17.46,17.46,0,0,0-3.06,11.81.08.08,0,0,0,0,.05,17.56,17.56,0,0,0,5.18,2.62.11.11,0,0,0,.08,0,12.61,12.61,0,0,0,1.06-1.72s0-.08,0-.09a13.35,13.35,0,0,1-1.62-.77.07.07,0,0,1,0-.11l.32-.26a.07.07,0,0,1,.06,0,12.28,12.28,0,0,0,10.43,0,.09.09,0,0,1,.07,0l.32.26a.07.07,0,0,1,0,.11,12,12,0,0,1-1.62.77.06.06,0,0,0,0,.09,13.68,13.68,0,0,0,1.06,1.72.11.11,0,0,0,.07,0,17.26,17.26,0,0,0,5.19-2.62.05.05,0,0,0,0-.05A17.37,17.37,0,0,0,41.09,8.42ZM30.43,17.87a2,2,0,0,1-1.86-2.09,1.88,1.88,0,1,1,3.73,0A2,2,0,0,1,30.43,17.87Zm6.9,0a2,2,0,0,1-1.87-2.09,2,2,0,0,1,1.87-2.09,2,2,0,0,1,1.86,2.09A2,2,0,0,1,37.33,17.87Z" style="fill:#fff"/></svg>
